    <svg
      xmlns="http://www.w3.org/2000/svg"
      height="18"
    >
      <path d="M8.10414 18.9984V4.59368H0.461517V1.59424H19.1877V4.59368H11.5451V18.9984H8.10414Z" fill="white" />
      <path
        d="M36.3203 18.9985L32.1186 13.0366H25.5264V19.0355H22.0492V1.63135H33.7486C38.1313 1.63135 40.051 4.66782 40.051 7.334C40.051 9.48175 38.6746 11.6295 35.8494 12.5923L40.3046 19.0355H36.3203V18.9985ZM25.5264 4.59376V10.0372H32.9155C35.4872 10.0372 36.4289 8.77817 36.4289 7.334C36.4289 5.88982 35.4872 4.63079 32.9155 4.63079H25.5264V4.59376Z"
        fill="white"
      />
      <path
        d="M84.0957 17.3322C81.6689 18.5542 78.5901 18.9985 75.6924 18.9985C68.0498 18.9985 63.16 15.3696 63.16 10.0002C63.16 4.63083 68.0136 0.964844 75.62 0.964844C78.409 0.964844 81.6327 1.40921 84.0957 2.6312V5.70471C82.5382 4.9641 79.6767 3.89023 75.8373 3.89023C69.8971 3.89023 66.8907 6.5564 66.8907 9.92615C66.8907 13.2589 69.8246 15.9621 75.8735 15.9621C79.8578 15.9621 82.8279 14.8512 84.0957 14.2216V17.3322Z"
        fill="white"
      />
      <path d="M94.4187 18.9984V4.59368H86.776V1.59424H105.502V4.59368H97.8597V18.9984H94.4187Z" fill="white" />
      <path d="M53.0181 1.29834L41.681 18.9988L53.0181 1.29834Z" fill="white" />
      <path d="M53.0181 1.29834L64.3915 18.9988L53.0181 1.29834Z" fill="white" />
      <path
        d="M53.0181 1.29834L41.681 18.9988H45.5204L53.0181 6.96396L60.5158 18.9988H64.3915L53.0181 1.29834Z"
        fill="white"
      />
      <path d="M51.026 16.0361L49.1425 18.9985H56.8938L55.0465 16.0361H51.026Z" fill="#FFC72C" />
    </svg>
