<svg width="332" height="99" viewBox="0 0 332 99" fill="none" xmlns="http://www.w3.org/2000/svg">
<path d="M41.7 73.4V34.5H20.6V26.4H72.3V34.5H51.2V73.4H41.7Z" fill="#004F59"/>
<path d="M119.6 73.4L108 57.3H89.8V73.5H80.2V26.5H112.5C124.6 26.5 129.9 34.7 129.9 41.9C129.9 47.7 126.1 53.5 118.3 56.1L130.6 73.5H119.6V73.4ZM89.8 34.5V49.2H110.2C117.3 49.2 119.9 45.8 119.9 41.9C119.9 38 117.3 34.6 110.2 34.6H89.8V34.5Z" fill="#004F59"/>
<path d="M251.5 68.9C244.8 72.2 236.3 73.4 228.3 73.4C207.2 73.4 193.7 63.6 193.7 49.1C193.7 34.6 207.1 24.7 228.1 24.7C235.8 24.7 244.7 25.9 251.5 29.2V37.5C247.2 35.5 239.3 32.6 228.7 32.6C212.3 32.6 204 39.8 204 48.9C204 57.9 212.1 65.2 228.8 65.2C239.8 65.2 248 62.2 251.5 60.5V68.9Z" fill="#004F59"/>
<path d="M280 73.4V34.5H258.9V26.4H310.6V34.5H289.5V73.4H280Z" fill="#004F59"/>
<path d="M165.7 25.6L134.4 73.4L165.7 25.6Z" fill="#004F59"/>
<path d="M165.7 25.6L197.1 73.4L165.7 25.6Z" fill="#004F59"/>
<path d="M165.7 25.6L134.4 73.4H145L165.7 40.9L186.4 73.4H197.1L165.7 25.6Z" fill="#004F59"/>
<path d="M160.2 65.4L155 73.4H176.4L171.3 65.4H160.2Z" fill="#FFC72C"/>
</svg>
